<?xml version="1.0" encoding="utf-8"?>
<!-- Generator: Adobe Illustrator 23.0.0, SVG Export Plug-In . SVG Version: 6.00 Build 0)  -->
<svg version="1.1" id="Capa_1" xmlns="http://www.w3.org/2000/svg" xmlns:xlink="http://www.w3.org/1999/xlink" x="0px" y="0px"
	 viewBox="0 0 150 150" style="enable-background:new 0 0 150 150;" xml:space="preserve">
<style type="text/css">
	.st0{fill:url(#SVGID_1_);}
	.st1{fill:url(#SVGID_2_);}
	.st2{fill:url(#SVGID_3_);}
	.st3{fill:url(#SVGID_4_);}
	.st4{fill:url(#SVGID_5_);}
	.st5{fill:url(#SVGID_6_);}
	.st6{fill:url(#SVGID_7_);}
	.st7{fill:url(#SVGID_8_);}
	.st8{fill:url(#SVGID_9_);}
	.st9{fill:url(#SVGID_10_);}
	.st10{fill:url(#SVGID_11_);}
	.st11{fill:url(#SVGID_12_);}
	.st12{fill:url(#SVGID_13_);}
	.st13{fill:url(#SVGID_14_);}
	.st14{fill:url(#SVGID_15_);}
</style>
<g>
	<g>
		<g>
			<linearGradient id="SVGID_1_" gradientUnits="userSpaceOnUse" x1="70.8269" y1="-33.9259" x2="155.7869" y2="179.9141">
				<stop  offset="0" style="stop-color:#E9C95B"/>
				<stop  offset="0.1115" style="stop-color:#E4C256"/>
				<stop  offset="0.2741" style="stop-color:#D4AF47"/>
				<stop  offset="0.4668" style="stop-color:#BC8F2F"/>
				<stop  offset="0.6034" style="stop-color:#A7741A"/>
				<stop  offset="0.9804" style="stop-color:#F7F3EB"/>
			</linearGradient>
			<path class="st0" d="M114.1,39.3c-0.3-0.2-0.6-0.2-0.9-0.2c-0.6,0-1.2,0.3-1.8,0.9c-2.1,2.1-4.5,4.5-6.6,6.6
				c-3.5,3.5-7.1,7.1-10.7,10.7c-0.8,0.8-1.5,2.1-0.3,3.4c0.9,0.9,2.3,0.8,3.4-0.3c4-4,8-8,12-12l5.5-5.5c0.9-0.9,0.9-1.2,0.9-1.4
				C115.2,40.4,114.9,39.6,114.1,39.3z"/>
			<linearGradient id="SVGID_2_" gradientUnits="userSpaceOnUse" x1="49.7421" y1="-25.5488" x2="134.7021" y2="188.2912">
				<stop  offset="0" style="stop-color:#E9C95B"/>
				<stop  offset="0.1115" style="stop-color:#E4C256"/>
				<stop  offset="0.2741" style="stop-color:#D4AF47"/>
				<stop  offset="0.4668" style="stop-color:#BC8F2F"/>
				<stop  offset="0.6034" style="stop-color:#A7741A"/>
				<stop  offset="0.9804" style="stop-color:#F7F3EB"/>
			</linearGradient>
			<path class="st1" d="M91.2,39.2C90.9,39,90.8,39,90.5,39c-0.8,0-1.4,0.5-1.8,1.2l-2.1,3.4C81.3,51.3,76.2,59.1,71,66.8
				c-0.8,1.2-0.6,2.5,0.5,3.2c1.1,0.8,2.5,0.3,3.2-0.9c3.2-4.8,6.4-9.5,9.5-14.3c2.6-4,5.2-7.8,7.8-11.8c0.5-0.6,0.6-1.2,0.6-1.7
				C92.8,40.2,92.3,39.5,91.2,39.2z"/>
			<linearGradient id="SVGID_3_" gradientUnits="userSpaceOnUse" x1="56.4078" y1="-28.1971" x2="141.3678" y2="185.6429">
				<stop  offset="0" style="stop-color:#E9C95B"/>
				<stop  offset="0.1115" style="stop-color:#E4C256"/>
				<stop  offset="0.2741" style="stop-color:#D4AF47"/>
				<stop  offset="0.4668" style="stop-color:#BC8F2F"/>
				<stop  offset="0.6034" style="stop-color:#A7741A"/>
				<stop  offset="0.9804" style="stop-color:#F7F3EB"/>
			</linearGradient>
			<path class="st2" d="M109.3,70.3c0.9-0.6,1.4-1.2,1.4-2.1c0-0.6-0.2-1.1-0.6-1.5c-0.5-0.5-0.9-0.6-1.5-0.6
				c-0.5,0-1.1,0.2-1.5,0.5c-6.3,3.7-13,7.8-21.8,13.2c-0.6,0.5-1.1,0.9-1.2,1.4c-0.2,0.5,0,1.1,0.3,1.7c0.6,1.1,2,1.4,3.2,0.6
				c4.1-2.5,8.4-5.1,12.6-7.5C103.2,74,106.3,72.1,109.3,70.3z"/>
			<linearGradient id="SVGID_4_" gradientUnits="userSpaceOnUse" x1="17.3169" y1="-12.666" x2="102.2769" y2="201.174">
				<stop  offset="0" style="stop-color:#E9C95B"/>
				<stop  offset="0.1115" style="stop-color:#E4C256"/>
				<stop  offset="0.2741" style="stop-color:#D4AF47"/>
				<stop  offset="0.4668" style="stop-color:#BC8F2F"/>
				<stop  offset="0.6034" style="stop-color:#A7741A"/>
				<stop  offset="0.9804" style="stop-color:#F7F3EB"/>
			</linearGradient>
			<path class="st3" d="M62.1,64.6c-0.8-0.8-1.7-1.2-2.3-1.2c-1.1,0-1.8,1.2-2.3,2.1c-1.7,4-3.2,7.8-4.9,11.8
				c-2.1,5.2-4.5,10.6-6.6,15.8c-2.1,4.9-4,9.8-6,14.7l-2.5,6.3v1.5c0,1.1,1.2,1.4,1.8,1.4c0.5,0,0.9-0.2,1.8-0.6
				c15.8-6.6,31.5-13.2,47.3-19.8c1.4-0.6,2.1-1.2,2.1-2c0.2-0.8-0.3-1.7-1.4-2.8C80.2,82.7,71.1,73.7,62.1,64.6z M80.5,95.2
				c-3.2,1.4-6.8,2.8-10.1,4.3c-8.1,3.4-16.3,6.9-24.4,10.3c-0.2,0.2-2.3,0.9-2.3,0.9l0.6-1.5L60.4,70L84,93.6L80.5,95.2z"/>
		</g>
		<linearGradient id="SVGID_5_" gradientUnits="userSpaceOnUse" x1="47.6467" y1="-24.7163" x2="132.6067" y2="189.1237">
			<stop  offset="0" style="stop-color:#E9C95B"/>
			<stop  offset="0.1115" style="stop-color:#E4C256"/>
			<stop  offset="0.2741" style="stop-color:#D4AF47"/>
			<stop  offset="0.4668" style="stop-color:#BC8F2F"/>
			<stop  offset="0.6034" style="stop-color:#A7741A"/>
			<stop  offset="0.9804" style="stop-color:#F7F3EB"/>
		</linearGradient>
		<path class="st4" d="M84.6,68.3c1.8-0.6,3.7,0.8,3.7,2.6c0,1.4-1.4,2.8-2.8,2.6c-1.7-0.2-2.9-1.7-2.5-3.4
			C83.1,69.2,83.9,68.6,84.6,68.3"/>
		<linearGradient id="SVGID_6_" gradientUnits="userSpaceOnUse" x1="36.9472" y1="-20.4653" x2="121.9072" y2="193.3747">
			<stop  offset="0" style="stop-color:#E9C95B"/>
			<stop  offset="0.1115" style="stop-color:#E4C256"/>
			<stop  offset="0.2741" style="stop-color:#D4AF47"/>
			<stop  offset="0.4668" style="stop-color:#BC8F2F"/>
			<stop  offset="0.6034" style="stop-color:#A7741A"/>
			<stop  offset="0.9804" style="stop-color:#F7F3EB"/>
		</linearGradient>
		<path class="st5" d="M71,58.5c0,1.5-1.4,2.6-2.8,2.6c-1.5,0-2.6-1.4-2.6-2.8c0.2-1.4,1.4-2.6,2.8-2.6C69.6,55.7,71,57.1,71,58.5"
			/>
		<linearGradient id="SVGID_7_" gradientUnits="userSpaceOnUse" x1="54.4352" y1="-27.4134" x2="139.3952" y2="186.4266">
			<stop  offset="0" style="stop-color:#E9C95B"/>
			<stop  offset="0.1115" style="stop-color:#E4C256"/>
			<stop  offset="0.2741" style="stop-color:#D4AF47"/>
			<stop  offset="0.4668" style="stop-color:#BC8F2F"/>
			<stop  offset="0.6034" style="stop-color:#A7741A"/>
			<stop  offset="0.9804" style="stop-color:#F7F3EB"/>
		</linearGradient>
		<path class="st6" d="M99.5,88.9c-1.5,0-2.6-1.2-2.6-2.8s1.2-2.6,2.8-2.6c1.5,0,2.5,1.2,2.5,2.6C102.3,87.6,101.1,88.9,99.5,88.9"
			/>
		<linearGradient id="SVGID_8_" gradientUnits="userSpaceOnUse" x1="24.3649" y1="-15.4663" x2="109.3249" y2="198.3737">
			<stop  offset="0" style="stop-color:#E9C95B"/>
			<stop  offset="0.1115" style="stop-color:#E4C256"/>
			<stop  offset="0.2741" style="stop-color:#D4AF47"/>
			<stop  offset="0.4668" style="stop-color:#BC8F2F"/>
			<stop  offset="0.6034" style="stop-color:#A7741A"/>
			<stop  offset="0.9804" style="stop-color:#F7F3EB"/>
		</linearGradient>
		<path class="st7" d="M62.5,78.7c1.2,0,2.5,1.1,2.5,2.3s-1.1,2.3-2.3,2.3s-2.1-0.9-2.3-2.1C60.2,79.8,61.2,78.7,62.5,78.7"/>
		<linearGradient id="SVGID_9_" gradientUnits="userSpaceOnUse" x1="23.4079" y1="-15.086" x2="108.3679" y2="198.754">
			<stop  offset="0" style="stop-color:#E9C95B"/>
			<stop  offset="0.1115" style="stop-color:#E4C256"/>
			<stop  offset="0.2741" style="stop-color:#D4AF47"/>
			<stop  offset="0.4668" style="stop-color:#BC8F2F"/>
			<stop  offset="0.6034" style="stop-color:#A7741A"/>
			<stop  offset="0.9804" style="stop-color:#F7F3EB"/>
		</linearGradient>
		<path class="st8" d="M64.8,91.3c-1.4,0-2.3-1.1-2.3-2.3s1.1-2.3,2.5-2.1c1.2,0,2.1,1.1,2.1,2.3C67.1,90.4,66.1,91.5,64.8,91.3"/>
		<linearGradient id="SVGID_10_" gradientUnits="userSpaceOnUse" x1="75.1178" y1="-35.6307" x2="160.0778" y2="178.2093">
			<stop  offset="0" style="stop-color:#E9C95B"/>
			<stop  offset="0.1115" style="stop-color:#E4C256"/>
			<stop  offset="0.2741" style="stop-color:#D4AF47"/>
			<stop  offset="0.4668" style="stop-color:#BC8F2F"/>
			<stop  offset="0.6034" style="stop-color:#A7741A"/>
			<stop  offset="0.9804" style="stop-color:#F7F3EB"/>
		</linearGradient>
		<path class="st9" d="M111.6,56.2c1.8-0.6,3.7,0.8,3.7,2.6c0,1.4-1.4,2.8-2.8,2.6c-1.7-0.2-2.9-1.7-2.5-3.4
			C110.3,57.3,110.9,56.5,111.6,56.2"/>
		<linearGradient id="SVGID_11_" gradientUnits="userSpaceOnUse" x1="68.6824" y1="-33.0739" x2="153.6424" y2="180.7661">
			<stop  offset="0" style="stop-color:#E9C95B"/>
			<stop  offset="0.1115" style="stop-color:#E4C256"/>
			<stop  offset="0.2741" style="stop-color:#D4AF47"/>
			<stop  offset="0.4668" style="stop-color:#BC8F2F"/>
			<stop  offset="0.6034" style="stop-color:#A7741A"/>
			<stop  offset="0.9804" style="stop-color:#F7F3EB"/>
		</linearGradient>
		<path class="st10" d="M96.6,37.2c1.8-0.6,3.7,0.8,3.7,2.6c0,1.4-1.4,2.8-2.8,2.6c-1.7-0.2-2.9-1.7-2.5-3.4
			C95.2,38.2,95.8,37.5,96.6,37.2"/>
		<linearGradient id="SVGID_12_" gradientUnits="userSpaceOnUse" x1="30.1428" y1="-17.7618" x2="115.1028" y2="196.0782">
			<stop  offset="0" style="stop-color:#E9C95B"/>
			<stop  offset="0.1115" style="stop-color:#E4C256"/>
			<stop  offset="0.2741" style="stop-color:#D4AF47"/>
			<stop  offset="0.4668" style="stop-color:#BC8F2F"/>
			<stop  offset="0.6034" style="stop-color:#A7741A"/>
			<stop  offset="0.9804" style="stop-color:#F7F3EB"/>
		</linearGradient>
		<path class="st11" d="M73.6,89.8c1.2,0,2.5,1.1,2.5,2.3s-1.1,2.3-2.3,2.3c-1.2,0-2.1-0.9-2.3-2.1C71.3,90.9,72.2,89.8,73.6,89.8"
			/>
		<linearGradient id="SVGID_13_" gradientUnits="userSpaceOnUse" x1="11.735" y1="-10.4483" x2="96.695" y2="203.3917">
			<stop  offset="0" style="stop-color:#E9C95B"/>
			<stop  offset="0.1115" style="stop-color:#E4C256"/>
			<stop  offset="0.2741" style="stop-color:#D4AF47"/>
			<stop  offset="0.4668" style="stop-color:#BC8F2F"/>
			<stop  offset="0.6034" style="stop-color:#A7741A"/>
			<stop  offset="0.9804" style="stop-color:#F7F3EB"/>
		</linearGradient>
		<path class="st12" d="M54.9,100.4c-1.4,0-2.3-1.1-2.3-2.3c0-1.2,1.1-2.3,2.5-2.1c1.2,0,2.1,1.1,2.1,2.3
			C57.2,99.5,56.1,100.4,54.9,100.4"/>
		<linearGradient id="SVGID_14_" gradientUnits="userSpaceOnUse" x1="20.9108" y1="-14.0939" x2="105.8708" y2="199.7461">
			<stop  offset="0" style="stop-color:#E9C95B"/>
			<stop  offset="0.1115" style="stop-color:#E4C256"/>
			<stop  offset="0.2741" style="stop-color:#D4AF47"/>
			<stop  offset="0.4668" style="stop-color:#BC8F2F"/>
			<stop  offset="0.6034" style="stop-color:#A7741A"/>
			<stop  offset="0.9804" style="stop-color:#F7F3EB"/>
		</linearGradient>
		<path class="st13" d="M64.5,93.8c1.2,0,2.5,1.1,2.5,2.3s-1.1,2.3-2.3,2.3c-1.2,0-2.1-0.9-2.3-2.1C62.2,94.9,63.3,93.8,64.5,93.8"
			/>
		<linearGradient id="SVGID_15_" gradientUnits="userSpaceOnUse" x1="16.9848" y1="-12.5341" x2="101.9448" y2="201.3059">
			<stop  offset="0" style="stop-color:#E9C95B"/>
			<stop  offset="0.1115" style="stop-color:#E4C256"/>
			<stop  offset="0.2741" style="stop-color:#D4AF47"/>
			<stop  offset="0.4668" style="stop-color:#BC8F2F"/>
			<stop  offset="0.6034" style="stop-color:#A7741A"/>
			<stop  offset="0.9804" style="stop-color:#F7F3EB"/>
		</linearGradient>
		<path class="st14" d="M57.8,92.4c-1.4,0-2.3-1.1-2.3-2.3s1.1-2.3,2.5-2.1c1.2,0,2.1,1.1,2.1,2.3S59.2,92.4,57.8,92.4"/>
	</g>
</g>
</svg>
