<?xml version="1.0" encoding="utf-8"?>
<!-- Generator: Adobe Illustrator 26.0.1, SVG Export Plug-In . SVG Version: 6.00 Build 0)  -->
<svg version="1.1" id="Capa_1" xmlns="http://www.w3.org/2000/svg" xmlns:xlink="http://www.w3.org/1999/xlink" x="0px" y="0px"
	 viewBox="0 0 150 150" style="enable-background:new 0 0 150 150;" xml:space="preserve">
<g>
	<path d="M118.6,119.9h-7.2V95.5l4.9,1.8c0.1,0,0.2,0.1,0.4,0.1c0.4,0,0.9-0.2,1.1-0.8c0.2-0.5-0.1-1.2-0.6-1.4l-23.7-9.2
		c-0.5-0.2-1.2,0.1-1.4,0.6c-0.2,0.5,0.1,1.2,0.6,1.4l16.5,6.4v25.3H91V82l2.5,2.2c0.3,0.3,0.8,0.3,1.2,0.2c0.4-0.2,0.6-0.5,0.6-1
		v-9.2c0-0.3-0.1-0.6-0.4-0.9L76.5,58.1v-9.2h3.2c0.6,0,1.1-0.5,1.1-1.1c0-0.5-0.5-1.1-1.1-1.1h-3.2v-2.7c0-0.6-0.5-1.1-1.1-1.1
		c-0.6,0-1.1,0.5-1.1,1.1v2.7h-3.5c-0.6,0-1.1,0.5-1.1,1.1c0,0.5,0.5,1.1,1.1,1.1h3.5v8.9L54.9,74.9c-0.2,0.2-0.3,0.5-0.3,0.9v9
		c0,0.4,0.2,0.9,0.6,1c0.1,0.1,0.3,0.1,0.4,0.1c0.2,0,0.5-0.1,0.8-0.3l2.5-2.2v36.5H41.1V94.5l16.2-6.3c0.5-0.2,0.9-0.9,0.6-1.4
		c-0.2-0.5-0.9-0.9-1.4-0.6l-23.7,9.2c-0.5,0.2-0.9,0.9-0.6,1.4c0.2,0.4,0.5,0.8,1.1,0.8c0.1,0,0.2,0,0.4-0.1l5.3-2.1v24.5h-5.6
		c-0.6,0-1.1,0.5-1.1,1.1c0,0.6,0.5,1.1,1.1,1.1h85.4c0.6,0,1.1-0.5,1.1-1.1C119.7,120.5,119.3,119.9,118.6,119.9z M56.7,76.3
		L75.2,60l17.9,14.8v6.2L76,66.3c-0.4-0.3-1.1-0.3-1.5,0L59.4,79.9c-0.2,0.1-0.4,0.2-0.5,0.4l-2.2,1.9V76.3z M61,81.4l14.4-12.8
		l13.4,11.6v39.8h-5.2v-12.2c0-5.7-4.1-8.2-8.2-8.2c-4.1,0-8.2,2.6-8.2,8.2v12.2H61C61,119.9,61,81.4,61,81.4z M81.3,119.9H69.5
		v-12.2c0-4.4,3.1-6.1,5.9-6.1c2.9,0,5.9,1.6,5.9,6.1V119.9z"/>
	<path d="M44.3,103v10.4c0,0.6,0.5,1.1,1.1,1.1h9.2c0.6,0,1.1-0.5,1.1-1.1V103c0-4.6-2.9-6.7-5.7-6.7C47.1,96.4,44.3,98.4,44.3,103z
		 M53.5,103v9.3h-7V103c0-3.2,1.8-4.4,3.5-4.4C51.6,98.5,53.5,99.7,53.5,103z"/>
	<path d="M104.7,114.5c0.6,0,1.1-0.5,1.1-1.1v-10.4c0-4.6-2.9-6.7-5.7-6.7s-5.7,2.1-5.7,6.7v10.4c0,0.6,0.5,1.1,1.1,1.1H104.7z
		 M96.6,103c0-3.2,1.8-4.4,3.5-4.4c1.7,0,3.5,1.2,3.5,4.4v9.3h-7V103H96.6z"/>
	<path d="M75.4,90.2c2.6,0,4.8-2.2,4.8-4.8c0-2.6-2.2-4.8-4.8-4.8s-4.8,2.2-4.8,4.8C70.6,88.1,72.7,90.2,75.4,90.2z M75.4,83
		c1.4,0,2.5,1.2,2.5,2.5c0,1.4-1.2,2.5-2.5,2.5c-1.4,0-2.5-1.2-2.5-2.5C72.8,84.1,74,83,75.4,83z"/>
</g>
</svg>
